<svg width="24" height="25" viewBox="0 0 24 25" fill="none" xmlns="http://www.w3.org/2000/svg">
<path id="Vector" d="M2.55814 10.7122C2.32467 10.7122 2.10077 10.6194 1.93569 10.4544C1.7706 10.2893 1.67786 10.0654 1.67786 9.83191V2.79141C1.67786 2.55795 1.7706 2.33405 1.93569 2.16896C2.10077 2.00388 2.32467 1.91113 2.55814 1.91113H9.60039C9.83386 1.91113 10.0578 2.00388 10.2228 2.16896C10.3879 2.33405 10.4807 2.55795 10.4807 2.79141V9.83191C10.4807 10.0654 10.3879 10.2893 10.2228 10.4544C10.0578 10.6194 9.83386 10.7122 9.60039 10.7122H2.55814ZM14.8821 10.7122C14.6486 10.7122 14.4247 10.6194 14.2596 10.4544C14.0945 10.2893 14.0018 10.0654 14.0018 9.83191V2.79141C14.0018 2.55795 14.0945 2.33405 14.2596 2.16896C14.4247 2.00388 14.6486 1.91113 14.8821 1.91113H21.9226C22.156 1.91113 22.3799 2.00388 22.545 2.16896C22.7101 2.33405 22.8029 2.55795 22.8029 2.79141V9.83191C22.8029 10.0654 22.7101 10.2893 22.545 10.4544C22.3799 10.6194 22.156 10.7122 21.9226 10.7122H14.8821ZM2.55814 23.0361C2.32467 23.0361 2.10077 22.9434 1.93569 22.7783C1.7706 22.6132 1.67786 22.3893 1.67786 22.1559V15.1136C1.67786 14.8801 1.7706 14.6562 1.93569 14.4911C2.10077 14.3261 2.32467 14.2333 2.55814 14.2333H9.60039C9.83386 14.2333 10.0578 14.3261 10.2228 14.4911C10.3879 14.6562 10.4807 14.8801 10.4807 15.1136V22.1559C10.4807 22.3893 10.3879 22.6132 10.2228 22.7783C10.0578 22.9434 9.83386 23.0361 9.60039 23.0361H2.55814ZM14.8821 23.0361C14.6486 23.0361 14.4247 22.9434 14.2596 22.7783C14.0945 22.6132 14.0018 22.3893 14.0018 22.1559V15.1136C14.0018 14.8801 14.0945 14.6562 14.2596 14.4911C14.4247 14.3261 14.6486 14.2333 14.8821 14.2333H21.9226C22.156 14.2333 22.3799 14.3261 22.545 14.4911C22.7101 14.6562 22.8029 14.8801 22.8029 15.1136V22.1559C22.8029 22.3893 22.7101 22.6132 22.545 22.7783C22.3799 22.9434 22.156 23.0361 21.9226 23.0361H14.8821Z" stroke="#545454" stroke-width="2"/>
</svg>
